<svg height="446.959" viewBox="0 0 378.907 446.959" width="378.907" xmlns="http://www.w3.org/2000/svg"><path d="m376.008 213.652a21.789 21.789 0 0 0 -13.258-10.28c-1.226-.337-12.476-3.287-29.845-3.287a160.52 160.52 0 0 0 -17.706 1 276.8 276.8 0 0 0 26.309-11.851 30.778 30.778 0 0 0 16.58-25.785l2.12-44.2a14.937 14.937 0 0 0 .153-1.545l2.207-46.769q.027-.562.012-1.122l2.32-48.283a20.25 20.25 0 0 0 -20.268-21.53 21.485 21.485 0 0 0 -15.7 7.014 106.686 106.686 0 0 1 -33.959 24.7c-.714.324-1.437.642-2.145.943-.535.227-1.077.448-1.669.687-.555.225-1.11.451-1.668.665-1.011.386-2.037.761-3.142 1.141l-.422.151c-1.325.448-2.669.871-4 1.259-.963.28-1.92.538-2.891.8l-.977.267c-.91.239-1.816.458-2.79.694-.447.108-.894.216-1.367.325-.873.2-1.745.4-2.587.574l-1.714.347c-.789.158-1.578.317-2.368.459l-.423.073c-1.724.307-3.516.59-5.479.862l-.406.057c-.425.059-.85.119-1.276.173-.746.094-1.49.178-2.242.261-.61.068-1.219.131-1.82.19-.719.07-1.438.139-2.146.2-.662.055-1.32.1-2 .145-.882.062-1.764.119-2.651.164-.959.047-1.916.093-2.877.124-1.564.048-3.159.073-4.741.073a190.876 190.876 0 0 1 -40.472-4.73c-.776-.168-1.552-.338-2.323-.511q-2.195-.494-4.371-1.016l-1.6-.386c-9.812-2.406-19.485-5.235-28.841-7.97-22.734-6.656-44.205-12.935-65.895-12.935a94.9 94.9 0 0 0 -26.859 3.681 146.28 146.28 0 0 0 -14.588 5.09c-.108.043-.2.081-.249.1-1.072.441-2.12.889-3.174 1.355l-.239.106q-1.524.677-2.986 1.372l-.25.118q-1.477.708-2.894 1.427c-.027.013-.107.054-.165.085a115.168 115.168 0 0 0 -18.544 11.749 19 19 0 0 0 -27.575 19.231l46.316 371.192a19 19 0 1 0 37.708-4.7l-.184-1.474a22.077 22.077 0 0 0 7.26 1.834q.811.057 1.618.058c.2 0 .407 0 .593-.008a21.881 21.881 0 0 0 17.5-9.5 21.976 21.976 0 0 0 17.922 9.311c.2 0 .393 0 .56-.008a21.667 21.667 0 0 0 2.25-.173 21.974 21.974 0 0 0 17.71-13.982 46.467 46.467 0 0 0 28.768 10.607q.674.018 1.334.017c.467 0 .929-.006 1.4-.018a48.481 48.481 0 0 0 25.843-8.125 21.947 21.947 0 0 0 35.694-1.916 97.988 97.988 0 0 0 20.1 9.172 21.92 21.92 0 0 0 6.814 1.085c.194 0 .388 0 .589-.007a21.98 21.98 0 0 0 16.058-7.647 47.075 47.075 0 0 0 29.121 9.623h.012c.531 0 1.054-.006 1.555-.02a48.964 48.964 0 0 0 41.49-23.839 21.876 21.876 0 0 0 1.865-16.657 22.213 22.213 0 0 0 -1.916-4.637 21.9 21.9 0 0 0 5.544-16.79c-.233-2.447-2.661-23.574-17.779-37.434a21.894 21.894 0 0 0 7.34-14.283 623.38 623.38 0 0 0 2.348-64.354q.69.043 1.382.043c.192 0 .386 0 .585-.007a21.948 21.948 0 0 0 18.464-32.825z" fill="#fff"/><path d="m349.882 20.8c.271-5.543-6.057-7.845-9.955-3.617-10.318 11.193-28.124 26.3-53.838 33.776-88.007 25.597-152.309-35.181-211.123-18.074-42.072 12.238-54.952 37.273-54.952 37.273l23.237 157.4s29.1-18.753 61.449-25.7c50.536-10.857 86.431 7.154 153.692-1.238 32.9-4.105 62.49-17.629 76.2-24.71a15.68 15.68 0 0 0 8.482-13.177z" fill="#004"/><g fill="#39f"><path d="m198.915 97.746.661-45.015c-17.342-3.61-33.724-8.75-49.388-13.248l-.388 49.151c9.581 1.307 18.991 3.214 28.577 5.162 6.754 1.371 13.559 2.751 20.538 3.95z"/><path d="m152.743 145.54 1.317 53.152c13.7.757 27.539 2.367 42.709 3.373l.417-52.4c-4.676-.448-9.326-.93-13.953-1.412-10.355-1.079-20.505-2.126-30.49-2.713z"/><path d="m39.938 184.322 5.217 42.068c6.947-4.209 32.071-18.622 59.546-24.524.587-.126 1.161-.229 1.743-.347l-4.606-52.347c-1.2.306-2.4.607-3.591.954-34.58 10.059-52.008 26.836-58.309 34.196z"/><path d="m97.986 89.942 3.852 59.23c16.6-4.221 33.215-6.677 50.905-3.632l-2.943-56.906c-16.614-2.427-32.536-2.759-51.814 1.308z"/><path d="m74.967 32.9c-38.339 11.149-52.431 32.919-54.63 36.7l7.963 54.517c.817-.609 1.9-1.407 3.242-2.369 3.918-4.734 17.729-18.065 55.753-29.125 3.647-1.061 7.2-1.942 10.692-2.681l-2.887-60.089a79.266 79.266 0 0 0 -20.133 3.047z"/><path d="m347.552 70.226c-6.389 5.251-24.717 16.567-49.62 23.81l-2.924 48.674c21.676-7.776 41.617-19.305 50.338-25.714z"/><path d="m243.279 151.589c-.5 7.959-2.265 41.833-2.811 50.734 5.731-.369 11.692-.918 17.925-1.7 8.338-1.041 16.457-2.541 24.16-4.293a87.462 87.462 0 0 0 10.578-3.5l1.877-50.13s-2.608.909-4.859 1.563a190.927 190.927 0 0 1 -46.87 7.326z"/><path d="m297.932 94.036 3.81-48.932a112.662 112.662 0 0 1 -15.652 5.865 159.168 159.168 0 0 1 -40.282 6.314l.292 43.817c13.364-.008 32.042-2.489 51.832-7.064z"/><path d="m198.915 97.746-1.729 51.918c15.042 1.449 30.331 2.5 46.093 1.925l2.821-50.489c-17.437.866-32.51-.848-47.185-3.354z"/></g><path d="m65.28 431.959a4 4 0 0 1 -3.964-3.5l-46.316-371.202a4 4 0 0 1 7.939-.99l46.315 371.2a4 4 0 0 1 -3.974 4.5z" fill="#004"/><path d="m181.915 329.438c-18.009-.031-29.638 13.156-33.754 28.4l-1.193-.04a6.946 6.946 0 0 0 -.472 13.883c.484 20.59 13.439 35.127 32.018 35.6q1 .026 1.957 0a34.221 34.221 0 0 0 26.729-13.955 6.946 6.946 0 0 0 -11.541-7.732 20.313 20.313 0 0 1 -16.788 7.8c-12.934-.331-17.946-11.206-18.451-21.251l43.187 1.435a6.933 6.933 0 0 0 7.115-6.021c.246-1.843 2.13-18.319-7.443-29.262-3.535-4.04-10.108-8.853-21.364-8.857zm-19.35 28.873c2.925-7.9 8.979-14.955 19.344-14.982 4.907 0 8.467 1.336 10.883 4.078 2.807 3.183 3.89 8.006 4.217 12.049z" fill="#f06"/><path d="m334.54 335.1c-6.3-5.186-14.009-7.383-22.92-6.5-17.863 1.752-28.581 19.32-30.16 37.436l-9.169 1.285a6.946 6.946 0 0 0 1.929 13.758l7.867-1.1c3.278 17.877 15.924 29.468 33.01 29.482.389 0 .773 0 1.153-.014 19.988-.539 28.393-15.422 28.747-16.068a6.98 6.98 0 0 0 -2.725-9.467 6.909 6.909 0 0 0 -9.411 2.708c-.213.366-5.365 8.954-17.752 8.95-13.312-.011-17.753-10.268-19.226-17.525l46.87-6.571a6.949 6.949 0 0 0 5.951-7.536c-.073-.766-1.911-18.738-14.164-28.838zm-38.84 28.938c1.792-10.823 7.893-20.695 17.279-21.615q.909-.089 1.773-.113c7.1-.191 12.2 2.94 15.942 9.749a35.325 35.325 0 0 1 2.768 6.685z" fill="#f06"/><path d="m271.481 393.935a67.954 67.954 0 0 1 -29.668-19.312c15.264-1.593 24.636-8.793 28.616-16.153a19.92 19.92 0 0 0 -1.882-22.464c-3.988-4.875-16.5-15.225-46.424-6.086a6.945 6.945 0 0 0 -4.876 7.4c3.152 28.716-.257 62.1-.292 62.429a6.946 6.946 0 0 0 13.816 1.443c.064-.606.728-7.089 1.211-16.668a81.5 81.5 0 0 0 35.192 22.619 6.946 6.946 0 0 0 4.307-13.208zm-39.013-32.955c-.071-6.239-.323-12.765-.848-19.24 14.574-3.37 23.139-.649 26.175 3.062a6.125 6.125 0 0 1 .414 7.061c-2.623 4.852-10.881 9.901-25.741 9.117z" fill="#f06"/><path d="m133.286 363.749c-.3-8.091-.565-17.563-.752-28.573a6.947 6.947 0 0 0 -7.064-6.826h-.069a6.945 6.945 0 0 0 -6.757 7.061c.176 10.333.418 19.314.692 27.095l-19.152-.646a192.116 192.116 0 0 0 -3.666-30.091 6.945 6.945 0 1 0 -13.572 2.955 174.551 174.551 0 0 1 3.288 26.666l-5.18-.174a6.945 6.945 0 1 0 -.468 13.883l6.094.206c.164 15.672-.763 28.011-.78 28.235a6.948 6.948 0 0 0 6.388 7.46q.369.027.732.018a6.947 6.947 0 0 0 6.73-6.406c.072-.931.991-13.138.849-28.84l19.313.651c.948 19.6 1.988 27.842 2.053 28.35a6.945 6.945 0 0 0 7.067 6.05 6.833 6.833 0 0 0 .708-.055 6.947 6.947 0 0 0 6-7.773c-.015-.121-1.025-8.221-1.955-27.424a6.94 6.94 0 0 0 -.5-11.826z" fill="#f06"/><path d="m137.021 237.473a6.918 6.918 0 0 0 2.465-.527 67.756 67.756 0 0 1 10.212-3.317c1.748 38.269-1.729 76.03-1.766 76.428a6.945 6.945 0 0 0 6.266 7.565 7.267 7.267 0 0 0 .845.028 6.946 6.946 0 0 0 6.719-6.293 630.717 630.717 0 0 0 1.766-79.393c9.951-.021 16.239 2.571 16.642 2.742a6.946 6.946 0 0 0 5.607-12.706c-.917-.405-22.822-9.785-51.6 2.113a6.947 6.947 0 0 0 2.842 13.364z" fill="#f06"/><path d="m358.749 217.837c-.851-.233-21.145-5.625-50.475-.653a6.946 6.946 0 0 0 2.321 13.7 134.146 134.146 0 0 1 15.452-1.709c2.145 39.956-1.563 78.393-1.6 78.791a6.946 6.946 0 0 0 13.825 1.362 597.939 597.939 0 0 0 1.691-80.122 85.49 85.49 0 0 1 15.13 2.035 6.946 6.946 0 0 0 3.658-13.4z" fill="#f06"/><path d="m251.368 310.035a6.946 6.946 0 0 0 7.125 6.761 6.945 6.945 0 0 0 6.756-7.125c-.021-.829-.284-10.249-1.313-23.736a93.624 93.624 0 0 0 41.966 25.5 6.945 6.945 0 1 0 3.773-13.368c-18.474-5.216-31.166-16.517-38.328-24.661 13.128-2.487 22.941-9.3 27.263-19.358a24.983 24.983 0 0 0 -5.072-27.593c-4.822-4.868-19.047-14.93-46.892-3.268a6.945 6.945 0 0 0 -4.107 7.864c7.603 35.392 8.817 78.549 8.829 78.984zm32.306-73.808a11.011 11.011 0 0 1 2.178 12.331c-3.109 7.231-12.13 11.608-24.419 11.974-1.059-8.629-2.4-17.674-4.108-26.507 11.575-3.731 21.204-2.992 26.349 2.202z" fill="#f06"/><path d="m99.434 318.079c19.088-1.962 31.331-13.93 29.772-29.1-1.723-16.753-17.13-21.587-29.509-25.471-13.391-4.2-19.783-7-20.554-14.509-.433-4.2 1.31-7.754 5.181-10.553 6.106-4.416 16.184-5.719 22.467-2.905 4.006 1.8 4.72 4.429 4.907 6.255a6.946 6.946 0 1 0 13.819-1.42c-.811-7.887-5.445-14.107-13.047-17.513-10.844-4.858-26.1-3.036-36.285 4.326-7.953 5.75-11.81 14-10.862 23.231 1.792 17.425 17.552 22.37 30.215 26.342 12.957 4.066 19.139 6.736 19.848 13.638.972 9.452-10.939 13.2-17.372 13.862-7.629.784-19.288-1.207-20.182-9.9a6.946 6.946 0 0 0 -13.819 1.421c1.611 15.674 16.775 22.93 31.994 22.519 1.144-.033 2.293-.102 3.427-.223z" fill="#f06"/><path d="m176.46 269.51a6.946 6.946 0 1 0 4.988 12.965c.417-.16.832-.306 1.247-.457-3.352 15.015-5.53 27.251-5.559 27.411a6.946 6.946 0 1 0 13.679 2.423c.03-.169 2.849-16.013 7-33.617a87.928 87.928 0 0 1 25.283 0c3.158 16.044 5.135 30.054 5.157 30.209a6.946 6.946 0 0 0 13.757-1.928c-.116-.828-2.889-20.485-7.267-40.543a218.316 218.316 0 0 0 -7.861-28.529c-2.951-7.9-7.363-16.992-15.352-17.182-8.238-.186-15.29 7.486-25.106 46.078a88.337 88.337 0 0 0 -9.966 3.17zm34.784-33.254c1.833 3.4 4.913 10.987 8.781 27.6a101.981 101.981 0 0 0 -18.577-.049c4.505-16.618 7.852-24.175 9.796-27.551z" fill="#f06"/></svg>